# xmcd CD database file generated by Grip 2.94
# 
# Track frame offsets:
#       150
#       18680
#       35995
#       53337
#       70382
#       91590
#       107707
#       126747
#       140825
#       158265
# 
# Disc length: 2280 seconds
# 
# Revision: 3
# Processed by: cddbd v1.4b41PL1 Copyright (c) Steve Scherf et al.
# Submitted via: Grip 2.94
# 
DISCID=8908e60a
DTITLE=K.T. Oslin - At Her Best
DYEAR=1900
DGENRE=
TTITLE0=Do Ya
TTITLE1=Come Next Monday
TTITLE2=Hey Bobby
TTITLE3=Wall of Tears
TTITLE4=Money
TTITLE5=Mary and Willie
TTITLE6=80's Ladies
TTITLE7=Younger Men
TTITLE8=Love is Strange
TTITLE9=You Call Everybody Darling
EXTD=
EXTT0=
EXTT1=
EXTT2=
EXTT3=
EXTT4=
EXTT5=
EXTT6=
EXTT7=
EXTT8=
EXTT9=
PLAYORDER=
